# xmcd
#
# Track frame offsets:
#	150
#	12111
#	25634
#	38044
#	48442
#	60174
#	72004
#	83282
#	92295
#	103888
#	116952
#	127209
#
# Disc length: 1763 seconds
#
# Revision: 1
# Processed by: cddbd v1.5.2PL0 Copyright (c) Steve Scherf et al.
# Submitted via: audiograbber 1.83.01
#
DISCID=8a06e10c
DTITLE=Charley Pride - The Sensational Charley Pride
DYEAR=1969
DGENRE=Country
TTITLE0=Louisiana Man
TTITLE1=She Still Got A Hold On You
TTITLE2=Let The Chips Fall
TTITLE3=Come On Home And Sing The Blues To Daddy
TTITLE4=Never More Than I
TTITLE5=Let Me Live Again
TTITLE6=Take Care Of The Little Things
TTITLE7=Even After Everything She's Done
TTITLE8=(It's Just A Matter Of) Making Up My Mind
TTITLE9=It's The Little Things
TTITLE10=Billy Bayou
TTITLE11=We Had All The Good Things Going
EXTD=
EXTT0=
EXTT1=
EXTT2=
EXTT3=
EXTT4=
EXTT5=
EXTT6=
EXTT7=
EXTT8=
EXTT9=
EXTT10=
EXTT11=
PLAYORDER=
